# Blender 4.3.2
# www.blender.org
mtllib octaedro.mtl
o Cone
v 0.000000 -1.968216 0.000000
v 0.000000 0.031784 -2.000000
v 2.000000 0.031784 0.000000
v 0.000000 0.031784 2.000000
v -2.000000 0.031784 0.000000
v 0.000000 2.030511 0.000000
v 0.000000 0.030511 2.000000
v 2.000000 0.030511 -0.000000
v 0.000000 0.030511 -2.000000
v -2.000000 0.030511 -0.000000
vn 0.5774 -0.5774 -0.5774
vn 0.5774 -0.5774 0.5774
vn -0.0000 1.0000 -0.0000
vn -0.5774 -0.5774 0.5774
vn -0.5774 -0.5774 -0.5774
vn 0.5774 0.5774 0.5774
vn 0.5774 0.5774 -0.5774
vn -0.0000 -1.0000 -0.0000
vn -0.5774 0.5774 -0.5774
vn -0.5774 0.5774 0.5774
vt 0.750000 0.250000
vt 0.750000 0.490000
vt 0.990000 0.250000
vt 0.750000 0.010000
vt 0.490000 0.250000
vt 0.250000 0.490000
vt 0.010000 0.250000
vt 0.250000 0.010000
vt 0.510000 0.250000
s 0
f 1/1/1 2/2/1 3/3/1
f 1/1/2 3/3/2 4/4/2
f 3/5/3 2/6/3 5/7/3 4/8/3
f 1/1/4 4/4/4 5/9/4
f 1/1/5 5/9/5 2/2/5
f 6/1/6 7/2/6 8/3/6
f 6/1/7 8/3/7 9/4/7
f 8/5/8 7/6/8 10/7/8 9/8/8
f 6/1/9 9/4/9 10/9/9
f 6/1/10 10/9/10 7/2/10
