# Blender 4.3.2
# www.blender.org
mtllib dado_animales.mtl
o Cube
v 1.000000 1.000000 -1.000000
v 1.000000 -1.000000 -1.000000
v 1.000000 1.000000 1.000000
v 1.000000 -1.000000 1.000000
v -1.000000 1.000000 -1.000000
v -1.000000 -1.000000 -1.000000
v -1.000000 1.000000 1.000000
v -1.000000 -1.000000 1.000000
vn -0.0000 1.0000 -0.0000
vn -0.0000 -0.0000 1.0000
vn -1.0000 -0.0000 -0.0000
vn -0.0000 -1.0000 -0.0000
vn 1.0000 -0.0000 -0.0000
vn -0.0000 -0.0000 -1.0000
vt 0.745632 0.662081
vt 0.501654 0.663292
vt 0.501658 0.338962
vt 0.746513 0.339349
vt 0.744693 0.004368
vt 0.744882 0.331586
vt 0.502784 0.330273
vt 0.503496 0.006855
vt 0.493872 0.340858
vt 0.494203 0.660798
vt 0.255421 0.658410
vt 0.255091 0.339821
vt 0.009050 0.352014
vt 0.241717 0.350779
vt 0.242048 0.649531
vt 0.009381 0.650766
vt 0.996380 0.340192
vt 0.994882 0.660648
vt 0.751774 0.661698
vt 0.752845 0.338124
vt 0.743290 0.672092
vt 0.741993 0.995085
vt 0.505610 0.994856
vt 0.505903 0.672971
s 0
usemtl elefante
f 1/1/1 5/2/1 7/3/1 3/4/1
usemtl cerdos
f 4/5/2 3/6/2 7/7/2 8/8/2
usemtl vacas
f 2/17/5 1/18/5 3/19/5 4/20/5
usemtl pajaros
f 6/21/6 5/22/6 1/23/6 2/24/6
usemtl pulpos
f 8/9/3 7/10/3 5/11/3 6/12/3
usemtl bichos
f 6/13/4 2/14/4 4/15/4 8/16/4
